<?xml version="1.0" encoding="UTF-8" standalone="no"?>
<!-- Created with Inkscape (http://www.inkscape.org/) -->

<svg
   width="34.376293mm"
   height="29.370808mm"
   viewBox="0 0 34.376293 29.370808"
   version="1.1"
   id="svg1"
   xml:space="preserve"
   xmlns="http://www.w3.org/2000/svg"
   xmlns:svg="http://www.w3.org/2000/svg"><defs
     id="defs1" /><g
     id="layer2"
     transform="translate(-139.86299,-85.796437)"><path
       style="fill:#000000;stroke-width:0.264583"
       d="m 154.0125,91.58638 c -0.60359,-1.868392 -0.63758,-3.576271 -0.60596,-4.421413 0.67974,-0.949535 2.13338,-1.193626 3.34302,-1.263261 -0.67986,1.588026 -0.62113,3.264926 -0.63163,4.947772 0,0 4.73723,-5.053042 9.57972,-5.053042 4.8425,0 10.10609,3.158149 8.10593,13.05369 -2.00016,9.895544 -6.21104,15.159124 -10.52718,15.685484 -4.31613,0.52636 -6.94793,-2.84234 -6.94793,-2.84234 0,0 -2.52652,3.47397 -5.47413,3.47397 -2.9476,0 -10.42189,-5.68467 -10.94825,-15.369668 -0.52636,-9.684998 3.90281,-11.531879 6.00049,-11.895703 5.00273,-0.867682 8.10592,3.684511 8.10592,3.684511 z"
       id="path4" /></g></svg>
