<?xml version="1.0" encoding="UTF-8" standalone="no"?>
<!-- Created with Inkscape (http://www.inkscape.org/) -->

<svg
   width="37.97097mm"
   height="30.934158mm"
   viewBox="0 0 37.97097 30.934158"
   version="1.1"
   id="svg1"
   xml:space="preserve"
   xmlns="http://www.w3.org/2000/svg"
   xmlns:svg="http://www.w3.org/2000/svg"><defs
     id="defs1" /><g
     id="layer2"
     transform="translate(-131.7883,-159.00452)"><path
       style="fill:#000000;stroke-width:0.264583"
       d="m 136.85128,168.12426 c 0,0 -0.85213,-3.49371 0.59648,-5.45359 1.44862,-1.95989 5.96488,-1.10777 5.96488,-1.10777 0,0 1.19297,-2.64159 4.94232,-2.55637 3.74935,0.0852 4.43105,4.0902 4.43105,4.0902 0,0 1.27819,-0.93734 3.06766,0.0852 1.78946,1.02255 1.61903,2.7268 1.61903,2.7268 0,0 2.13031,-0.51128 3.57893,0.6817 1.44861,1.19298 1.19297,2.81201 1.19297,2.81201 0,0 2.0451,-0.0852 3.57893,1.02255 1.53382,1.10776 1.02255,3.06765 1.02255,3.06765 0,0 2.64159,0.34085 2.89722,3.49371 0.25564,3.15287 -2.64159,4.68669 -2.64159,4.68669 0,0 1.44862,3.83456 -1.53382,6.30573 -2.98244,2.47116 -6.30572,0.93733 -6.30572,0.93733 0,0 0,1.02256 -5.02754,1.02256 -5.02754,0 -5.36839,-1.27819 -5.36839,-1.27819 0,0 -5.19796,1.27819 -8.26561,-0.51128 -3.06765,-1.78946 -1.44862,-3.49371 -1.44862,-3.49371 0,0 -2.38595,-0.34085 -3.91977,-2.30074 -1.53383,-1.95989 0.34085,-4.43105 0.34085,-4.43105 0,0 -5.02754,-1.87467 -3.49371,-6.90221 1.53382,-5.02754 4.7719,-2.89723 4.7719,-2.89723 z"
       id="path10" /></g></svg>
