<?xml version="1.0" encoding="UTF-8" standalone="no"?>
<!-- Created with Inkscape (http://www.inkscape.org/) -->

<svg
   width="27.525717mm"
   height="26.745655mm"
   viewBox="0 0 27.525717 26.745655"
   version="1.1"
   id="svg1"
   xml:space="preserve"
   xmlns="http://www.w3.org/2000/svg"
   xmlns:svg="http://www.w3.org/2000/svg"><defs
     id="defs1" /><g
     id="layer2"
     transform="translate(-35.782855,-249.16247)"><path
       style="display:inline;fill:#000000;stroke-width:0.207704"
       d="m 41.232541,254.59781 c 0,0 -8.41381,5.76135 -4.332425,14.94429 3.558206,8.00579 12.39989,7.11096 17.536741,4.5731 6.007359,-2.96795 10.523751,-8.55111 8.291523,-16.03861 -2.232229,-7.48751 -11.650396,-6.62902 -11.650396,-6.62902 0,0 2.030148,-2.77897 -0.17173,-2.20771 -1.490879,0.3868 -2.469706,0.92511 -2.932261,2.31761 -0.272268,0.81964 -1.56252,-0.61443 -2.46307,-0.18764 -0.847309,0.40158 -1.105406,1.54705 -1.56393,1.73784 -1.06846,0.44457 -5.325515,-2.92373 -2.714452,1.49014 z"
       id="path5" /></g></svg>
