<?xml version="1.0" encoding="UTF-8" standalone="no"?>
<!-- Created with Inkscape (http://www.inkscape.org/) -->

<svg
   width="29.34359mm"
   height="27.716902mm"
   viewBox="0 0 29.343589 27.716902"
   version="1.1"
   id="svg1"
   xml:space="preserve"
   xmlns="http://www.w3.org/2000/svg"
   xmlns:svg="http://www.w3.org/2000/svg"><defs
     id="defs1" /><g
     id="layer2"
     transform="translate(-33.988268,-248.25312)"><path
       style="display:inline;fill:#000000;stroke-width:0.216145"
       d="m 39.9745,254.07206 c 0,0 -9.481551,6.17809 -4.579056,15.31191 4.011438,7.47371 11.852395,7.58508 18.53505,5.22779 6.655075,-2.34755 11.122834,-9.30365 8.763532,-16.97534 -2.359302,-7.6717 -12.313615,-6.7921 -12.313615,-6.7921 0,0 1.881965,-3.10302 -0.445259,-2.5177 -1.575749,0.39631 -1.988547,0.50026 -2.477434,1.92701 -0.287767,0.83981 -2.204283,-1.14705 -3.156098,-0.70976 -0.895544,0.41146 -1.066968,2.05211 -1.470797,2.37719 -0.777614,0.62596 -5.616026,-2.37145 -2.856323,2.151 z"
       id="path5" /></g></svg>
