<?xml version="1.0" encoding="UTF-8" standalone="no"?>
<!-- Created with Inkscape (http://www.inkscape.org/) -->

<svg
   width="24.701897mm"
   height="43.285027mm"
   viewBox="0 0 24.701897 43.285027"
   version="1.1"
   id="svg1"
   xml:space="preserve"
   xmlns="http://www.w3.org/2000/svg"
   xmlns:svg="http://www.w3.org/2000/svg"><defs
     id="defs1" /><g
     id="layer2"
     transform="translate(-95.898807,-48.258477)"><path
       style="fill:#000000;stroke-width:0.264583"
       d="m 103.17433,50.085669 c 0,0 -1.71599,-2.359496 -3.217492,-1.715997 -1.501497,0.643498 -2.229675,5.936935 -0.643498,13.406228 1.64822,7.761461 4.39724,13.29898 4.39724,13.29898 0,0 -2.67176,-2.204804 -5.14799,-0.643499 -3.192962,2.013214 -3.554527,7.936487 -0.873279,11.79748 2.681249,3.860993 10.418519,7.721989 16.746259,3.431995 6.32774,-4.289994 7.76783,-10.617734 4.39724,-16.623723 -3.15804,-5.627252 -7.18105,-4.490571 -9.57795,-3.848728 -3.70831,0.993012 -4.04278,4.813975 -4.04278,4.813975 0,0 -3.21924,-7.654375 -4.28999,-12.869978 -0.50766,-2.472791 -1.60875,-10.458631 -0.53625,-11.582982 0.77286,-0.810225 2.78849,0.536249 2.78849,0.536249 z"
       id="path7" /></g></svg>
