<?xml version="1.0" encoding="UTF-8" standalone="no"?>
<!-- Created with Inkscape (http://www.inkscape.org/) -->

<svg
   width="35.279476mm"
   height="43.558533mm"
   viewBox="0 0 35.279476 43.558533"
   version="1.1"
   id="svg1"
   xml:space="preserve"
   xmlns="http://www.w3.org/2000/svg"
   xmlns:svg="http://www.w3.org/2000/svg"><defs
     id="defs1" /><g
     id="layer2"
     transform="translate(-79.745506,-172.52106)"><path
       style="fill:#000000;stroke-width:0.233824"
       d="m 99.58337,215.93439 c 6.93078,-1.55222 8.9935,-9.39502 8.9935,-9.39502 0,0 6.77587,-4.32504 6.43573,-9.64009 -0.13253,-2.07094 -3.79542,2.36917 -3.79542,2.36917 0,0 0.19905,-8.07125 1.15512,-13.07132 0.83627,-4.37353 -5.11556,3.9214 -4.95055,5.55531 0.16502,1.63392 -0.89086,-7.78522 -0.66008,-11.84588 0.22745,-4.00209 -5.12422,4.16166 -5.11557,4.73836 0.0199,1.32799 -0.93326,-9.01855 -4.950553,-12.09097 -0.992233,-0.75886 -0.06774,11.85364 -0.944235,13.06393 -0.91965,1.26987 0.823347,-5.82517 -1.366024,-7.9988 -1.316588,-1.30713 -4.551942,8.39421 -5.858157,9.6401 -1.049163,1.00071 0.653389,-5.37746 -0.45274,-4.84188 -1.798188,0.87066 -4.250286,2.4727 -5.817962,8.68157 -1.567676,6.20889 0.99011,11.51911 0.99011,11.51911 0,0 -1.785626,-3.3131 -3.382878,-2.94105 -0.820959,0.19122 2.816849,8.00901 5.335808,10.47689 2.368223,2.32019 6.887098,6.78631 14.383901,5.78057 z"
       id="path11" /></g></svg>
