<?xml version="1.0" encoding="UTF-8" standalone="no"?>
<!-- Created with Inkscape (http://www.inkscape.org/) -->

<svg
   width="39.632748mm"
   height="49.703426mm"
   viewBox="0 0 39.632748 49.703426"
   version="1.1"
   id="svg1"
   xml:space="preserve"
   xmlns="http://www.w3.org/2000/svg"
   xmlns:svg="http://www.w3.org/2000/svg"><defs
     id="defs1" /><g
     id="layer2"
     transform="translate(-75.411833,-166.45266)"><path
       style="fill:#000000;stroke-width:0.264583"
       d="m 84.726517,209.58665 c 0,0 5.109604,8.08246 12.913362,6.31733 7.803761,-1.76514 10.126301,-10.68372 10.126301,-10.68372 0,0 6.78184,-4.9238 7.24635,-10.96242 0.46451,-6.03862 -4.27348,2.69415 -4.27348,2.69415 0,0 -1.39353,-9.75469 1.30062,-14.8643 2.69416,-5.1096 -5.75991,4.45929 -5.57411,6.31733 0.1858,1.85804 -4.45929,-7.89666 -0.74322,-13.47077 3.71608,-5.57412 -5.57411,3.53027 -5.759914,5.38831 -0.185803,1.85803 0.0929,-13.00627 -5.574112,-13.74948 -5.667015,-0.74322 3.90188,1.76513 -0.46451,12.82046 -4.366387,11.05532 1.021921,-5.57412 -2.136743,-7.06055 -3.158665,-1.48642 0,6.03863 -6.596034,10.96243 -6.596033,4.9238 5.016701,-5.01671 1.765136,-6.22443 -3.251565,-1.20772 -7.060543,3.53027 -8.825679,10.59081 -1.765136,7.06055 1.114822,13.09917 1.114822,13.09917 0,0 -3.623173,-2.41545 -3.808976,-3.34447 -0.185804,-0.92902 0.650314,7.15345 3.716075,8.91858 3.065761,1.76514 5.574112,3.25157 5.574112,3.25157 z"
       id="path11" /></g></svg>
