<?xml version="1.0" encoding="UTF-8" standalone="no"?>
<!-- Created with Inkscape (http://www.inkscape.org/) -->

<svg
   width="41.91888mm"
   height="35.980145mm"
   viewBox="0 0 41.91888 35.980145"
   version="1.1"
   id="svg1"
   xml:space="preserve"
   xmlns="http://www.w3.org/2000/svg"
   xmlns:svg="http://www.w3.org/2000/svg"><defs
     id="defs1" /><g
     id="layer2"
     transform="translate(-107.38296,-236.3928)"><path
       style="display:inline;fill:#000000;stroke-width:0.222818"
       d="m 114.9231,244.08085 c -1.06177,-1.20037 -1.69814,-2.38961 -1.47129,-4.54059 l 2.10366,-0.53531 c 0,0 -0.4839,1.48878 0.69801,2.48756 0,0 0.16757,-0.69134 0.9525,-1.09673 0.8768,-0.45282 1.70542,-0.30176 1.70542,-0.30176 0,0 0.68308,-3.90399 4.70894,-3.69296 3.98749,0.20902 4.56406,4.38007 4.56406,4.38007 0,0 4.78,-2.41751 7.07191,1.60603 2.19317,3.85024 -1.2085,6.57012 -1.2085,6.57012 0,0 0.95731,-0.0926 1.64436,1.20082 0.6519,1.22725 0.23552,2.01122 0.23552,2.01122 0,0 2.86458,-1.89802 5.59486,0.14602 2.7303,2.04403 2.05892,5.15876 2.05892,5.15876 0,0 6.24823,0.15703 5.68438,6.22945 -0.52818,5.68841 -5.86342,4.42873 -5.86342,4.42873 0,0 0.13428,4.03939 -4.83397,4.23408 -4.96823,0.19465 -5.28155,-3.99074 -5.28155,-3.99074 0,0 -1.86546,0.91 -3.82873,0.45156 -2.38852,-0.55771 -2.92988,-2.3496 -2.92988,-2.3496 0,0 -1.92739,2.77764 -4.56541,1.70337 -3.63334,-1.47962 -2.77505,-4.62342 -2.77505,-4.62342 0,0 -2.99238,1.49217 -5.50536,-1.36269 -2.0152,-2.28937 -0.85041,-5.93742 -0.85041,-5.93742 0,0 -6.71384,0 -5.2368,-7.49482 1.47705,-7.49479 7.35682,-4.64749 7.35682,-4.64749 z"
       id="path3" /></g></svg>
