<?xml version="1.0" encoding="UTF-8" standalone="no"?>
<!-- Created with Inkscape (http://www.inkscape.org/) -->

<svg
   width="37.299793mm"
   height="37.454823mm"
   viewBox="0 0 37.299793 37.454823"
   version="1.1"
   id="svg1"
   xml:space="preserve"
   xmlns="http://www.w3.org/2000/svg"
   xmlns:svg="http://www.w3.org/2000/svg"><defs
     id="defs1" /><g
     id="layer2"
     transform="translate(-20.609934,-197.69364)"><path
       style="display:inline;fill:#000000;stroke-width:0.226733"
       d="m 27.864224,206.62566 c 0,0 -12.433561,10.19564 -4.745072,22.11548 8.157369,12.64677 26.869034,3.35229 30.432289,-0.65014 3.62501,-4.07179 6.275615,-10.8163 2.574758,-18.30452 -3.700855,-7.48823 -15.477198,-5.8233 -15.477198,-5.8233 0,0 0.718583,-2.22149 -0.270333,-3.82224 -0.988916,-1.60076 -3.056647,-1.06717 -3.056647,-1.06717 0,0 -0.899014,-2.04541 -5.39408,-1.1561 -4.49507,0.8893 -3.820281,5.71201 -3.820281,5.71201 0,0 -1.563309,1.22563 -0.243436,2.99598 z"
       id="path2" /></g></svg>
