<?xml version="1.0" encoding="UTF-8" standalone="no"?>
<!-- Created with Inkscape (http://www.inkscape.org/) -->

<svg
   width="33.020542mm"
   height="41.454147mm"
   viewBox="0 0 33.020542 41.454147"
   version="1.1"
   id="svg1"
   xml:space="preserve"
   xmlns="http://www.w3.org/2000/svg"
   xmlns:svg="http://www.w3.org/2000/svg"><defs
     id="defs1" /><g
     id="layer2"
     transform="translate(-60.959911,-71.73636)"><path
       style="display:inline;fill:#000000;stroke-width:0.240627"
       d="m 70.444259,76.561153 c 0,0 -13.24895,8.558938 -8.428528,24.250937 4.726325,15.3857 23.178449,14.72833 28.376042,7.2372 5.197593,-7.49113 5.229215,-15.119146 -3.096774,-19.39375 -2.648336,-1.359668 -4.203398,-1.13493 -6.701038,-1.717168 -2.644872,-0.449819 -1.194116,-6.772688 -3.266375,-8.980569 -1.450646,-1.545587 -3.652361,-1.904523 -3.652361,-1.904523 0,0 0.372139,-3.308297 1.264279,-3.68208 0.110733,-0.0464 -2.669033,-0.634843 -2.669033,-0.634843 0,0 -1.826181,2.412398 -1.826181,4.824796 z"
       id="path1" /></g></svg>
