<?xml version="1.0" encoding="UTF-8" standalone="no"?>
<!-- Created with Inkscape (http://www.inkscape.org/) -->

<svg
   width="41.979282mm"
   height="40.659027mm"
   viewBox="0 0 41.979282 40.659027"
   version="1.1"
   id="svg1"
   xml:space="preserve"
   xmlns="http://www.w3.org/2000/svg"
   xmlns:svg="http://www.w3.org/2000/svg"><defs
     id="defs1" /><g
     id="layer2"
     transform="translate(10.910229,-30.103973)"><path
       style="display:inline;fill:#000000;stroke-width:0.285745"
       d="m 1.9627364,38.514901 c 0,0 -15.3106394,2.381456 -12.5369764,18.836119 C -8.3644688,70.460408 5.9926873,71.24593 13.481428,70.608806 20.042529,70.050603 32.37145,64.103549 30.957069,51.190818 29.542691,38.278085 13.598782,38.041156 13.598782,38.041156 c -1.547662,-0.859461 1.137319,-5.431525 1.285799,-7.937185 0,0 -4.688621,3.607872 -5.3013627,3.502612 0,0 0.343913,-1.595283 -2.2276838,-1.595283 -2.5715983,0 -2.53379,2.090441 -2.53379,2.090441 0,0 -2.6892235,-2.050685 -4.33811231,-2.694649 -1.67054419,-0.652421 2.86188011,5.90995 1.47910421,7.107809 z"
       id="path6" /></g></svg>
