<?xml version="1.0" encoding="UTF-8" standalone="no"?>
<!-- Created with Inkscape (http://www.inkscape.org/) -->

<svg
   width="38.430599mm"
   height="31.203669mm"
   viewBox="0 0 38.430599 31.203669"
   version="1.1"
   id="svg1"
   xml:space="preserve"
   xmlns="http://www.w3.org/2000/svg"
   xmlns:svg="http://www.w3.org/2000/svg"><defs
     id="defs1" /><g
     id="layer2"
     transform="translate(16.287051,-250.23873)"><path
       style="display:inline;fill:#000000;stroke-width:0.287696"
       d="m -5.967073,259.12884 c 0,0 -12.440254,-7.01481 -10.003667,12.14781 2.018623,15.87552 13.1933733,8.19775 13.1933733,8.19775 0,0 4.4610948,2.71416 7.7055274,1.76757 3.2444324,-0.9466 5.0018333,-4.91393 5.0018333,-4.91393 0,0 2.082497,3.46784 7.3547,1.4169 5.272203,-2.0509 5.739221,-11.06092 3.833373,-17.40936 -2.407592,-8.01976 -8.294468,-10.51479 -10.862977,-10.0415 -2.5685093,0.47328 -3.7851714,5.20619 -3.7851714,5.20619 0,0 -2.7036937,-3.94409 -7.16478863,-2.68198 -4.46109467,1.26211 -5.27220297,6.31055 -5.27220297,6.31055 z"
       id="path8" /></g></svg>
