<?xml version="1.0" encoding="UTF-8" standalone="no"?>
<!-- Created with Inkscape (http://www.inkscape.org/) -->

<svg
   width="39.662144mm"
   height="32.942856mm"
   viewBox="0 0 39.662144 32.942856"
   version="1.1"
   id="svg1"
   xml:space="preserve"
   xmlns="http://www.w3.org/2000/svg"
   xmlns:svg="http://www.w3.org/2000/svg"><defs
     id="defs1" /><g
     id="layer2"
     transform="translate(16.103551,-250.22071)"><path
       style="fill:#000000;stroke-width:0.287696"
       d="m -5.967073,259.12884 c 0,0 -11.490699,-3.78632 -10.003667,12.14781 1.487031,15.93411 13.3832843,10.09686 13.3832843,10.09686 0,0 4.4610948,2.52425 7.7055274,1.57766 3.2444324,-0.9466 5.0018333,-7.57268 5.0018333,-7.57268 0,0 1.892586,4.41739 7.164789,2.36645 5.272203,-2.0509 7.570343,-13.56765 5.542572,-19.8782 -2.02777,-6.31056 -10.003667,-8.04595 -12.572176,-7.57266 -2.5685093,0.47328 -3.7851714,5.20619 -3.7851714,5.20619 0,0 -2.7036937,-3.94409 -7.16478863,-2.68198 -4.46109467,1.26211 -5.27220297,6.31055 -5.27220297,6.31055 z"
       id="path8" /></g></svg>
